# xmcd
# 
# Track frame offsets:
#     150
#     13309
#     26644
#     38030
#     59801
#     74502
#     86471
#     101311
#     115802
#     128413
#     140890
#     154208
#     170543
#     189288
#     206987
# 
# Disc length: 3009
# 
# Revision: 0
# Processed by: cddbd v1.5.2PL0 Copyright (c) Steve Scherf et al.
# Submitted via: fre:ac v1.0.31
# 
DISCID=d70bbf0f
DTITLE=Dr. John - The Definitive Pop Collection - CD 2
DYEAR=2006
DGENRE=Blues
TTITLE0=Right Place, Wrong Time
TTITLE1=Such A Night
TTITLE2=Life
TTITLE3=Qualified
TTITLE4=I Been Hoodood
TTITLE5=Cold Cold Cold
TTITLE6=Quitters Never Win
TTITLE7=What Comes Around (Goes Around)
TTITLE8=Mos' Scocious
TTITLE9=(Everybody Wanna Get Rich) Rite Away
TTITLE10=Let's Make A Better World
TTITLE11=Honey Dripper
TTITLE12=Makin' Whoopee!
TTITLE13=Accentuate The Positive
TTITLE14=Goin' Back To New Orleans
EXTD=
EXTT0=
EXTT1=
EXTT2=
EXTT3=
EXTT4=
EXTT5=
EXTT6=
EXTT7=
EXTT8=
EXTT9=
EXTT10=
EXTT11=
EXTT12=
EXTT13=
EXTT14=
PLAYORDER=
